# xmcd
#
# Track frame offsets:
# 150
# 12119
# 26337
# 38184
# 50257
# 62477
# 79722
# 91414
# 103659
# 117929
# 130379
# 141114
#
# Disc length: 2097 seconds
#
#
# Revision: 1
# Processed by: cddbd v1.5.1PL2 Copyright (c) Steve Scherf et al.
# Submitted via: FreeRIP 2.945 
#
DISCID=93082f0c
DTITLE=Hank Williams Jr - 20th Century Masters The Millennium Colllection
DYEAR=2004
DGENRE=Country
TTITLE0=Long Gone Lonesome Blues
TTITLE1=Standing In The Shadows
TTITLE2=It's All Over But The Crying
TTITLE3=Cajun Baby
TTITLE4=I'd Rather Be Gone
TTITLE5=All For The Love Of Sunshine
TTITLE6=I've Got the Right to Cry
TTITLE7=Eleven Roses
TTITLE8=Pride's Not Hard To Swallow
TTITLE9=The Last Love Song
TTITLE10=I'll Think Of Something
TTITLE11=Living Proof
EXTD=Mercury Records
EXTT0=
EXTT1=
EXTT2=
EXTT3=
EXTT4=
EXTT5=
EXTT6=
EXTT7=
EXTT8=
EXTT9=
EXTT10=
EXTT11=
PLAYORDER=
